<?xml version="1.0" encoding="UTF-8" standalone="no"?>
<!-- Generator: Adobe Illustrator 24.1.1, SVG Export Plug-In . SVG Version: 6.00 Build 0)  -->

<svg
   xmlns:dc="http://purl.org/dc/elements/1.1/"
   xmlns:cc="http://creativecommons.org/ns#"
   xmlns:rdf="http://www.w3.org/1999/02/22-rdf-syntax-ns#"
   xmlns:svg="http://www.w3.org/2000/svg"
   xmlns="http://www.w3.org/2000/svg"
   xmlns:sodipodi="http://sodipodi.sourceforge.net/DTD/sodipodi-0.dtd"
   xmlns:inkscape="http://www.inkscape.org/namespaces/inkscape"
   version="1.1"
   id="Camada_1"
   x="0px"
   y="0px"
   viewBox="0 0 767.1613 174.81827"
   xml:space="preserve"
   sodipodi:docname="tallos-main-logo.svg"
   width="767.16132"
   height="174.81828"
   inkscape:version="0.92.5 (2060ec1f9f, 2020-04-08)"><metadata
   id="metadata962"><rdf:RDF><cc:Work
       rdf:about=""><dc:format>image/svg+xml</dc:format><dc:type
         rdf:resource="http://purl.org/dc/dcmitype/StillImage" /><dc:title></dc:title></cc:Work></rdf:RDF></metadata><defs
   id="defs960" /><sodipodi:namedview
   pagecolor="#ffffff"
   bordercolor="#666666"
   borderopacity="1"
   objecttolerance="10"
   gridtolerance="10"
   guidetolerance="10"
   inkscape:pageopacity="0"
   inkscape:pageshadow="2"
   inkscape:window-width="1528"
   inkscape:window-height="836"
   id="namedview958"
   showgrid="false"
   inkscape:zoom="0.55268106"
   inkscape:cx="443.03669"
   inkscape:cy="154.02246"
   inkscape:window-x="72"
   inkscape:window-y="27"
   inkscape:window-maximized="1"
   inkscape:current-layer="Camada_1" />
<style
   type="text/css"
   id="style933">
	.st0{fill:#19316F;}
	.st1{fill:#009BCD;}
	.st2{fill:#FFFFFF;}
</style>
<g
   id="g947"
   transform="translate(-22.768709,-235.2099)">
	<path
   class="st0"
   d="m 292.08,282.07 h -23.79 v 78.2 c 0,4.5 -1,7.85 -3.01,10.02 -2.01,2.18 -4.6,3.27 -7.78,3.27 -3.23,0 -5.86,-1.1 -7.89,-3.3 -2.03,-2.2 -3.05,-5.53 -3.05,-9.99 v -78.2 h -23.79 c -3.72,0 -6.49,-0.82 -8.3,-2.46 -1.81,-1.64 -2.72,-3.81 -2.72,-6.5 0,-2.79 0.94,-4.99 2.83,-6.61 1.88,-1.62 4.61,-2.42 8.19,-2.42 h 69.32 c 3.77,0 6.57,0.83 8.41,2.5 1.84,1.67 2.75,3.84 2.75,6.54 0,2.69 -0.93,4.86 -2.79,6.5 -1.87,1.63 -4.67,2.45 -8.38,2.45 z"
   id="path935"
   inkscape:connector-curvature="0"
   style="fill:#19316f" />
	<path
   class="st0"
   d="m 375.56,359.54 -5.14,-13.51 h -43.76 l -5.14,13.8 c -2.01,5.39 -3.72,9.02 -5.14,10.9 -1.42,1.88 -3.75,2.83 -6.98,2.83 -2.74,0 -5.17,-1 -7.27,-3.01 -2.11,-2.01 -3.16,-4.28 -3.16,-6.83 0,-1.47 0.24,-2.99 0.73,-4.55 0.49,-1.57 1.3,-3.75 2.42,-6.54 l 27.54,-69.9 c 0.78,-2.01 1.73,-4.42 2.83,-7.23 1.1,-2.81 2.28,-5.15 3.52,-7.01 1.25,-1.86 2.89,-3.37 4.92,-4.52 2.03,-1.15 4.54,-1.73 7.53,-1.73 3.03,0 5.57,0.58 7.6,1.73 2.03,1.15 3.67,2.63 4.92,4.44 1.25,1.81 2.3,3.76 3.16,5.84 0.86,2.08 1.95,4.86 3.27,8.33 l 28.12,69.46 c 2.2,5.29 3.3,9.13 3.3,11.53 0,2.5 -1.04,4.79 -3.12,6.87 -2.08,2.08 -4.59,3.12 -7.53,3.12 -1.71,0 -3.18,-0.31 -4.41,-0.92 -1.22,-0.61 -2.25,-1.44 -3.08,-2.5 -0.83,-1.05 -1.73,-2.67 -2.68,-4.85 -0.94,-2.17 -1.76,-4.09 -2.45,-5.75 z m -43.17,-29.89 h 32.16 l -16.23,-44.42 z"
   id="path937"
   inkscape:connector-curvature="0"
   style="fill:#19316f" />
	<path
   class="st0"
   d="m 436.22,275.46 v 78.35 h 44.21 c 3.52,0 6.23,0.86 8.11,2.57 1.88,1.71 2.83,3.87 2.83,6.46 0,2.64 -0.93,4.79 -2.79,6.42 -1.86,1.64 -4.58,2.46 -8.15,2.46 h -52.65 c -4.75,0 -8.16,-1.05 -10.24,-3.16 -2.08,-2.1 -3.12,-5.51 -3.12,-10.21 v -82.9 c 0,-4.41 0.99,-7.71 2.97,-9.91 1.98,-2.2 4.59,-3.3 7.82,-3.3 3.28,0 5.93,1.09 7.97,3.27 2.02,2.18 3.04,5.49 3.04,9.95 z"
   id="path939"
   inkscape:connector-curvature="0"
   style="fill:#19316f" />
	<path
   class="st0"
   d="m 527.05,275.46 v 78.35 h 44.21 c 3.52,0 6.23,0.86 8.11,2.57 1.88,1.71 2.83,3.87 2.83,6.46 0,2.64 -0.93,4.79 -2.79,6.42 -1.86,1.64 -4.58,2.46 -8.15,2.46 H 518.6 c -4.75,0 -8.16,-1.05 -10.24,-3.16 -2.08,-2.1 -3.12,-5.51 -3.12,-10.21 v -82.9 c 0,-4.41 0.99,-7.71 2.97,-9.91 1.98,-2.2 4.59,-3.3 7.82,-3.3 3.28,0 5.93,1.09 7.97,3.27 2.03,2.18 3.05,5.49 3.05,9.95 z"
   id="path941"
   inkscape:connector-curvature="0"
   style="fill:#19316f" />
	<path
   class="st0"
   d="m 636.39,262.24 c 11.16,0 20.74,2.26 28.75,6.79 8,4.53 14.06,10.97 18.17,19.31 4.11,8.35 6.17,18.15 6.17,29.41 0,8.32 -1.13,15.89 -3.38,22.69 -2.25,6.81 -5.63,12.7 -10.13,17.7 -4.5,4.99 -10.04,8.81 -16.6,11.45 -6.56,2.64 -14.07,3.97 -22.54,3.97 -8.42,0 -15.96,-1.36 -22.62,-4.08 -6.66,-2.72 -12.21,-6.55 -16.67,-11.49 -4.46,-4.94 -7.82,-10.89 -10.1,-17.84 -2.28,-6.95 -3.41,-14.47 -3.41,-22.54 0,-8.27 1.19,-15.86 3.56,-22.76 2.37,-6.9 5.81,-12.78 10.32,-17.62 4.5,-4.85 9.99,-8.55 16.45,-11.12 6.46,-2.58 13.8,-3.87 22.03,-3.87 z m 30.98,55.37 c 0,-7.88 -1.27,-14.71 -3.82,-20.49 -2.55,-5.78 -6.18,-10.15 -10.9,-13.11 -4.72,-2.96 -10.15,-4.44 -16.26,-4.44 -4.36,0 -8.38,0.82 -12.08,2.46 -3.7,1.64 -6.88,4.03 -9.55,7.16 -2.67,3.13 -4.77,7.14 -6.31,12.01 -1.54,4.87 -2.31,10.34 -2.31,16.41 0,6.12 0.77,11.65 2.31,16.59 1.54,4.95 3.72,9.04 6.54,12.3 2.81,3.26 6.04,5.69 9.69,7.31 3.65,1.62 7.65,2.42 12.01,2.42 5.58,0 10.71,-1.4 15.38,-4.19 4.67,-2.79 8.39,-7.1 11.16,-12.92 2.76,-5.82 4.14,-12.99 4.14,-21.51 z"
   id="path943"
   inkscape:connector-curvature="0"
   style="fill:#19316f" />
	<path
   class="st0"
   d="m 789.93,339.42 c 0,6.51 -1.68,12.36 -5.03,17.55 -3.35,5.19 -8.26,9.25 -14.72,12.19 -6.46,2.94 -14.12,4.41 -22.98,4.41 -10.62,0 -19.39,-2.01 -26.29,-6.02 -4.9,-2.89 -8.87,-6.74 -11.93,-11.57 -3.06,-4.82 -4.59,-9.51 -4.59,-14.06 0,-2.64 0.92,-4.91 2.75,-6.79 1.83,-1.88 4.17,-2.83 7.01,-2.83 2.3,0 4.25,0.73 5.84,2.2 1.59,1.47 2.95,3.65 4.08,6.54 1.37,3.43 2.85,6.29 4.44,8.59 1.59,2.3 3.83,4.2 6.72,5.69 2.89,1.49 6.68,2.24 11.38,2.24 6.46,0 11.71,-1.5 15.75,-4.52 4.04,-3.01 6.06,-6.77 6.06,-11.27 0,-3.57 -1.09,-6.47 -3.27,-8.7 -2.18,-2.23 -4.99,-3.93 -8.44,-5.1 -3.45,-1.17 -8.07,-2.42 -13.84,-3.75 -7.74,-1.81 -14.21,-3.93 -19.42,-6.35 -5.21,-2.42 -9.35,-5.73 -12.41,-9.91 -3.06,-4.19 -4.59,-9.39 -4.59,-15.6 0,-5.92 1.62,-11.19 4.85,-15.79 3.23,-4.6 7.91,-8.14 14.02,-10.61 6.12,-2.47 13.32,-3.71 21.59,-3.71 6.61,0 12.32,0.82 17.15,2.46 4.82,1.64 8.82,3.82 12.01,6.54 3.18,2.72 5.51,5.57 6.98,8.55 1.47,2.99 2.2,5.9 2.2,8.74 0,2.6 -0.92,4.93 -2.75,7.01 -1.84,2.08 -4.13,3.12 -6.87,3.12 -2.5,0 -4.39,-0.62 -5.69,-1.87 -1.3,-1.25 -2.71,-3.29 -4.22,-6.13 -1.96,-4.06 -4.31,-7.23 -7.05,-9.51 -2.74,-2.28 -7.15,-3.41 -13.22,-3.41 -5.63,0 -10.17,1.24 -13.62,3.71 -3.45,2.47 -5.18,5.45 -5.18,8.92 0,2.15 0.59,4.01 1.76,5.58 1.17,1.57 2.79,2.91 4.85,4.04 2.06,1.13 4.14,2.01 6.24,2.64 2.1,0.64 5.58,1.57 10.43,2.79 6.07,1.42 11.56,2.99 16.48,4.7 4.92,1.71 9.11,3.79 12.56,6.24 3.45,2.45 6.14,5.54 8.08,9.29 1.91,3.73 2.88,8.32 2.88,13.76 z"
   id="path945"
   inkscape:connector-curvature="0"
   style="fill:#19316f" />
</g>
<g
   id="g955"
   transform="translate(-22.768709,-235.2099)">
	<path
   class="st0"
   d="m 178.71,269.96 c -1.74,-20.62 -18.94,-34.48 -39.81,-34.62 -25.27,-0.16 -50.55,-0.19 -75.82,0.01 -22.84,0.19 -40.09,17.57 -40.23,40.24 -0.1,15.99 -0.12,31.98 0.01,47.97 0.14,17.58 10.93,31.85 26.12,37.43 -2.14,-6.82 -2.75,-14.79 -2.96,-20.79 -4.22,-4.1 -6.47,-9.38 -6.58,-15.75 -0.29,-16.76 -0.37,-33.54 0.02,-50.3 0.29,-12.54 9.65,-22.07 22.29,-22.26 26.31,-0.39 52.63,-0.35 78.94,-0.01 11.99,0.15 21.62,9.28 21.74,20.91 0.37,36.11 0.34,72.23 0.11,108.35 -0.06,9.79 -9.8,15.89 -17.96,10.75 -16.75,-10.55 -33.1,-21.75 -49.52,-32.86 -0.07,0.08 -0.14,0.17 -0.21,0.25 -1.02,1.24 -1.89,2.29 -2.78,3.19 l -0.64,0.65 c -1.97,2.01 -4.73,4.83 -8.74,7.23 16.34,10.82 32.59,21.79 48.7,32.95 10.18,7.04 20.68,9.19 31.93,3.38 11.46,-5.92 16.44,-15.98 16.57,-28.51 0.2,-16.76 0.44,-89.03 -1.18,-108.21 z"
   id="path949"
   inkscape:connector-curvature="0"
   style="fill:#19316f" />
	<path
   class="st1"
   d="m 64.12,367.69 c 13.26,0 19.09,-6.96 22.63,-10.51 3.55,-3.55 10.75,-15.78 24.24,-16.47 3.28,-0.24 12.04,0.32 14.11,0.27 15.31,-0.33 27.85,6.24 27.85,-33.31 0,-39.55 -1.31,-38.99 -51.36,-38.99 -50.05,0 -49.9,1.56 -48.26,65.09 0.13,5.12 -0.18,33.92 10.79,33.92 z m 4.34,-63.1 c 0,-19.78 1.03,-19.66 34.07,-19.66 33.04,0 34.56,-0.46 34.56,20.12 0,20.58 -12.26,19.41 -14.06,19.43 -4.89,0.04 -9.81,0.29 -14.68,-0.04 -8.03,-0.55 -14.49,2.15 -20.08,7.89 -4.78,4.91 -12.15,15.04 -16.09,15.04 -3.94,-0.01 -3.72,-19 -3.72,-42.78 z"
   id="path951"
   inkscape:connector-curvature="0"
   style="fill:#009bcd" />
	<circle
   class="st1"
   cx="66.690002"
   cy="395.07999"
   r="13.83"
   id="circle953"
   style="fill:#009bcd" />
</g>
</svg>