<?xml version="1.0" encoding="UTF-8" standalone="no"?>
<!-- Generator: Adobe Illustrator 24.1.1, SVG Export Plug-In . SVG Version: 6.00 Build 0)  -->

<svg
   xmlns:dc="http://purl.org/dc/elements/1.1/"
   xmlns:cc="http://creativecommons.org/ns#"
   xmlns:rdf="http://www.w3.org/1999/02/22-rdf-syntax-ns#"
   xmlns:svg="http://www.w3.org/2000/svg"
   xmlns="http://www.w3.org/2000/svg"
   xmlns:sodipodi="http://sodipodi.sourceforge.net/DTD/sodipodi-0.dtd"
   xmlns:inkscape="http://www.inkscape.org/namespaces/inkscape"
   version="1.1"
   id="Camada_1"
   x="0px"
   y="0px"
   viewBox="0 0 157.26455 174.81827"
   xml:space="preserve"
   sodipodi:docname="tallos-mobile-logo.svg"
   width="157.26456"
   height="174.81828"
   inkscape:version="0.92.5 (2060ec1f9f, 2020-04-08)"><metadata
   id="metadata962"><rdf:RDF><cc:Work
       rdf:about=""><dc:format>image/svg+xml</dc:format><dc:type
         rdf:resource="http://purl.org/dc/dcmitype/StillImage" /><dc:title></dc:title></cc:Work></rdf:RDF></metadata><defs
   id="defs960" /><sodipodi:namedview
   pagecolor="#ffffff"
   bordercolor="#666666"
   borderopacity="1"
   objecttolerance="10"
   gridtolerance="10"
   guidetolerance="10"
   inkscape:pageopacity="0"
   inkscape:pageshadow="2"
   inkscape:window-width="1528"
   inkscape:window-height="836"
   id="namedview958"
   showgrid="false"
   inkscape:zoom="0.78160906"
   inkscape:cx="388.48724"
   inkscape:cy="132.27759"
   inkscape:window-x="72"
   inkscape:window-y="27"
   inkscape:window-maximized="1"
   inkscape:current-layer="Camada_1" />
<style
   type="text/css"
   id="style933">
	.st0{fill:#19316F;}
	.st1{fill:#009BCD;}
	.st2{fill:#FFFFFF;}
</style>

<g
   id="g955"
   transform="translate(-22.768709,-235.2099)">
	<path
   class="st0"
   d="m 178.71,269.96 c -1.74,-20.62 -18.94,-34.48 -39.81,-34.62 -25.27,-0.16 -50.55,-0.19 -75.82,0.01 -22.84,0.19 -40.09,17.57 -40.23,40.24 -0.1,15.99 -0.12,31.98 0.01,47.97 0.14,17.58 10.93,31.85 26.12,37.43 -2.14,-6.82 -2.75,-14.79 -2.96,-20.79 -4.22,-4.1 -6.47,-9.38 -6.58,-15.75 -0.29,-16.76 -0.37,-33.54 0.02,-50.3 0.29,-12.54 9.65,-22.07 22.29,-22.26 26.31,-0.39 52.63,-0.35 78.94,-0.01 11.99,0.15 21.62,9.28 21.74,20.91 0.37,36.11 0.34,72.23 0.11,108.35 -0.06,9.79 -9.8,15.89 -17.96,10.75 -16.75,-10.55 -33.1,-21.75 -49.52,-32.86 -0.07,0.08 -0.14,0.17 -0.21,0.25 -1.02,1.24 -1.89,2.29 -2.78,3.19 l -0.64,0.65 c -1.97,2.01 -4.73,4.83 -8.74,7.23 16.34,10.82 32.59,21.79 48.7,32.95 10.18,7.04 20.68,9.19 31.93,3.38 11.46,-5.92 16.44,-15.98 16.57,-28.51 0.2,-16.76 0.44,-89.03 -1.18,-108.21 z"
   id="path949"
   inkscape:connector-curvature="0"
   style="fill:#19316f" />
	<path
   class="st1"
   d="m 64.12,367.69 c 13.26,0 19.09,-6.96 22.63,-10.51 3.55,-3.55 10.75,-15.78 24.24,-16.47 3.28,-0.24 12.04,0.32 14.11,0.27 15.31,-0.33 27.85,6.24 27.85,-33.31 0,-39.55 -1.31,-38.99 -51.36,-38.99 -50.05,0 -49.9,1.56 -48.26,65.09 0.13,5.12 -0.18,33.92 10.79,33.92 z m 4.34,-63.1 c 0,-19.78 1.03,-19.66 34.07,-19.66 33.04,0 34.56,-0.46 34.56,20.12 0,20.58 -12.26,19.41 -14.06,19.43 -4.89,0.04 -9.81,0.29 -14.68,-0.04 -8.03,-0.55 -14.49,2.15 -20.08,7.89 -4.78,4.91 -12.15,15.04 -16.09,15.04 -3.94,-0.01 -3.72,-19 -3.72,-42.78 z"
   id="path951"
   inkscape:connector-curvature="0"
   style="fill:#009bcd" />
	<circle
   class="st1"
   cx="66.690002"
   cy="395.07999"
   r="13.83"
   id="circle953"
   style="fill:#009bcd" />
</g>
</svg>